<svg xmlns="http://www.w3.org/2000/svg" style="display:none"><symbol id="icon-icon-blank-avatar" viewBox="0 0 29 32"><path d="M26.041 21.774c-2.343-.88-6.247-1.932-11.541-1.932-5.293 0-9.198 1.051-11.541 1.932C1.189 22.44 0 24.21 0 26.177v4.592c0 .287.224.52.5.52h28a.51.51 0 0 0 .5-.52v-4.592c0-1.968-1.189-3.737-2.959-4.403zM14.5 16.79c4.208 0 7.632-3.322 7.632-7.407V7.407C22.132 3.323 18.708 0 14.5 0S6.868 3.323 6.868 7.407v1.975c0 4.085 3.424 7.407 7.632 7.407z"/></symbol><symbol id="icon-icon-bookmark" viewBox="0 0 14 18"><path d="M12 0H2C.9 0 .01.9.01 2L0 18l7-3 7 3V2c0-1.1-.9-2-2-2z"/></symbol><symbol id="icon-icon-camera" viewBox="0 0 20 18"><g><circle cx="10.2" cy="10.2" r="3.2"/><path d="M7 0L5.17 2H2C.9 2 0 2.9 0 4v12c0 1.1.9 2 2 2h16c1.1 0 2-.9 2-2V4c0-1.1-.9-2-2-2h-3.17L13 0H7zm3 15c-2.76 0-5-2.24-5-5s2.24-5 5-5 5 2.24 5 5-2.24 5-5 5z"/></g></symbol><symbol id="icon-icon-check" viewBox="0 0 12 11"><path fill-rule="evenodd" d="M5.013 7.332L1.97 5.574.797 7.604l3.552 2.05 1.522.88 5.274-9.135L9.115.228 5.013 7.332z"/></symbol><symbol id="icon-icon-close" viewBox="0 0 48 48"><path d="M38 12.83L35.17 10 24 21.17 12.83 10 10 12.83 21.17 24 10 35.17 12.83 38 24 26.83 35.17 38 38 35.17 26.83 24z"/><path d="M0 0h48v48H0z"/></symbol><symbol id="icon-icon-comment" viewBox="0 0 18 18"><path stroke="#686f77" d="M17 2c0-.55-.45-1-1-1H2c-.55 0-1 .45-1 1v11c0 .55.45 1 1 1h11.5l3.5 3V2z"/></symbol><symbol id="icon-icon-cross" viewBox="0 0 32 32"><path d="M31.708 25.708L22 16l9.708-9.708a1 1 0 0 0 0-1.414L27.122.292a1 1 0 0 0-1.414-.001L16 9.999 6.292.291a.998.998 0 0 0-1.414.001L.292 4.878a1 1 0 0 0 0 1.414L10 16 .292 25.708a.999.999 0 0 0 0 1.414l4.586 4.586a1 1 0 0 0 1.414 0L16 22l9.708 9.708a1 1 0 0 0 1.414 0l4.586-4.586a.999.999 0 0 0 0-1.414z"/></symbol><symbol id="icon-icon-delete" viewBox="0 0 17 17"><path d="M8.5 0A8.498 8.498 0 0 0 0 8.5C0 13.196 3.804 17 8.5 17S17 13.196 17 8.5 13.196 0 8.5 0zm0 15.3a6.798 6.798 0 0 1-6.8-6.8c0-1.572.54-3.013 1.432-4.165l9.533 9.533A6.774 6.774 0 0 1 8.5 15.3zm5.368-2.635L4.335 3.132A6.774 6.774 0 0 1 8.5 1.7c3.757 0 6.8 3.043 6.8 6.8 0 1.572-.54 3.013-1.432 4.165z"/></symbol><symbol id="icon-icon-dropdown" viewBox="0 0 10 5"><path d="M0 0l5 5 5-5z"/></symbol><symbol id="icon-icon-facebook" viewBox="0 0 16 16"><path d="M15.3 0H.7C.3 0 0 .3 0 .7v14.7c0 .3.3.6.7.6H8v-5H6V8h2V6c0-2.1 1.2-3 3-3h2v3h-1c-.6 0-1 .4-1 1v1h2.6l-.6 3h-2v5h4.3c.4 0 .7-.3.7-.7V.7c0-.4-.3-.7-.7-.7z"/></symbol><symbol id="icon-icon-floppy-disk" viewBox="0 0 32 32"><path d="M28 0H0v32h32V4l-4-4zM16 4h4v8h-4V4zm12 24H4V4h2v10h18V4h2.343L28 5.657V28z"/></symbol><symbol id="icon-icon-gear" viewBox="0 0 17 17"><path d="M16.08 7.208a2.125 2.125 0 0 1-1.306-3.155c.342-.57.24-1.06-.1-1.398l-.33-.33c-.337-.337-.828-.44-1.397-.1A2.124 2.124 0 0 1 9.792.92C9.632.274 9.211 0 8.732 0h-.465C7.79 0 7.37.274 7.208.92a2.125 2.125 0 0 1-3.155 1.306c-.57-.342-1.061-.24-1.399.099l-.33.33c-.337.337-.44.829-.098 1.398A2.124 2.124 0 0 1 .919 7.208c-.643.16-.919.58-.919 1.06v.465c0 .478.274.897.92 1.059a2.125 2.125 0 0 1 1.306 3.155c-.342.57-.24 1.06.1 1.398l.33.33c.338.338.83.44 1.397.1a2.124 2.124 0 0 1 3.155 1.306c.16.645.581.919 1.06.919h.465c.478 0 .897-.274 1.059-.92a2.125 2.125 0 0 1 3.155-1.306c.568.341 1.059.24 1.398-.1l.33-.33c.337-.337.44-.828.1-1.397a2.124 2.124 0 0 1 1.306-3.155c.645-.16.919-.581.919-1.06v-.465c0-.479-.276-.899-.92-1.059zm-7.58 4.48a3.187 3.187 0 1 1 0-6.375 3.187 3.187 0 0 1 0 6.375z"/></symbol><symbol id="icon-icon-group" viewBox="0 0 37 30"><g><path d="M27 14c3.323 0 6-3.88 6-7.09C33 3.65 30.308 1 27 1s-6 2.65-6 5.91c0 3.21 2.677 7.09 6 7.09zm-15 2c3.942 0 7-4.631 7-8.615C19 3.313 15.86 0 12 0S5 3.313 5 7.385C5 11.369 8.058 16 12 16zm22.378 3.248c-1.5-.57-3.927-1.248-6.972-1.248-3.046 0-5.473.679-6.972 1.248-.15.057-.293.127-.434.2.483.182.932.367 1.319.547 2.24 1.04 3.688 3.256 3.688 5.645V26H36.4c.332 0 .6-.256.6-.571v-2.471c0-1.649-1.029-3.105-2.622-3.71z"/><path d="M20.983 21.01C19.136 20.093 16.077 19 12 19c-4.077 0-7.136 1.093-8.983 2.01C1.184 21.92 0 23.858 0 25.948v3.44c0 .338.268.612.6.612h22.8c.332 0 .6-.274.6-.611v-3.44c0-2.091-1.184-4.03-3.017-4.94z"/></g></symbol><symbol id="icon-icon-home" viewBox="0 0 20 19"><g data-name="Page-1"><g data-name="Core"><g data-name="home"><path data-name="Shape" d="M8 17.5v-6h4v6h5v-8h3l-10-9-10 9h3v8z"/></g></g></g></symbol><symbol id="icon-icon-like-filled" viewBox="0 0 18 17"><path stroke="#fc6361" d="M8.26 15.608c.198.209.466.325.747.325.277 0 .55-.12.747-.325l5.863-6.155A5.06 5.06 0 0 0 17 5.956c0-1.322-.49-2.565-1.38-3.5-.89-.935-2.072-1.45-3.331-1.45a4.566 4.566 0 0 0-3.286 1.402C8.116 1.5 6.948 1 5.708 1c-1.256 0-2.437.514-3.328 1.445A5.044 5.044 0 0 0 1 5.945c0 1.32.493 2.563 1.383 3.498l5.876 6.165z"/></symbol><symbol id="icon-icon-like" viewBox="0 0 18 17"><path stroke="#fc6361" d="M8.26 15.608c.198.209.466.325.747.325.277 0 .55-.12.747-.325l5.863-6.155A5.06 5.06 0 0 0 17 5.956c0-1.322-.49-2.565-1.38-3.5-.89-.935-2.072-1.45-3.331-1.45a4.566 4.566 0 0 0-3.286 1.402C8.116 1.5 6.948 1 5.708 1c-1.256 0-2.437.514-3.328 1.445A5.044 5.044 0 0 0 1 5.945c0 1.32.493 2.563 1.383 3.498l5.876 6.165z"/></symbol><symbol id="icon-icon-link" viewBox="0 0 24 24"><path d="M14 16a6 6 0 0 1-4.8-2.4 1 1 0 0 1 1.6-1.2 4 4 0 0 0 6 .43l3-3a4 4 0 0 0-5.67-5.64l-1.71 1.7A1 1 0 1 1 11 4.47l1.72-1.71a6 6 0 0 1 8.5 8.47l-3 3A6 6 0 0 1 14 16z"/><path d="M7.05 22.94a6 6 0 0 1-4.31-10.17l3-3a6 6 0 0 1 9 .65 1 1 0 0 1-1.6 1.2 4 4 0 0 0-5.6-.81 4 4 0 0 0-.43.38l-3 3a4 4 0 0 0 5.67 5.64l1.7-1.7a1 1 0 0 1 1.41 1.41l-1.71 1.71a6 6 0 0 1-4.13 1.69z"/></symbol><symbol id="icon-icon-marker" viewBox="0 0 15 18"><path d="M7.5 0A7.454 7.454 0 0 0 0 7.5c0 2.036.75 3.964 2.25 5.357.107.107 4.393 3.964 4.5 4.072.429.321 1.071.321 1.393 0 .107-.108 4.5-3.965 4.5-4.072 1.5-1.393 2.25-3.321 2.25-5.357C15 3.321 11.679 0 7.5 0zm0 9.643A2.15 2.15 0 0 1 5.357 7.5 2.15 2.15 0 0 1 7.5 5.357 2.15 2.15 0 0 1 9.643 7.5 2.15 2.15 0 0 1 7.5 9.643z"/></symbol><symbol id="icon-icon-message" viewBox="0 0 16 15"><g><path d="M15 0H1C.4 0 0 .4 0 1v1.4l8 4.5 8-4.4V1c0-.6-.4-1-1-1z"/><path d="M7.5 9.2L0 5v8.3c0 .6.4 1 1 1h14c.6 0 1-.4 1-1V5L8.5 9.2c-.28.14-.72.14-1 0z"/></g></symbol><symbol id="icon-icon-more" viewBox="0 0 24 6"><g fill-rule="evenodd"><circle cx="21" cy="3" r="3"/><circle cx="12" cy="3" r="3"/><circle cx="3" cy="3" r="3"/></g></symbol><symbol id="icon-icon-notifications" viewBox="0 0 15 19"><path d="M7.5 18.281a1.88 1.88 0 0 0 1.875-1.875h-3.75c0 1.032.834 1.875 1.875 1.875zm5.625-5.625V7.97c0-2.878-1.537-5.288-4.219-5.925v-.638C8.906.628 8.278 0 7.5 0c-.778 0-1.406.628-1.406 1.406v.638c-2.69.637-4.219 3.037-4.219 5.925v4.687L0 14.531v.938h15v-.938l-1.875-1.875z"/></symbol><symbol id="icon-icon-search" viewBox="0 0 16 17"><path d="M12.7 11.3c.9-1.2 1.4-2.6 1.4-4.2 0-3.9-3.1-7.1-7-7.1S0 3.2 0 7.1c0 3.9 3.2 7.1 7.1 7.1 1.6 0 3.1-.5 4.2-1.4l3 3c.2.2.5.3.7.3.2 0 .5-.1.7-.3.4-.4.4-1 0-1.4l-3-3.1zm-5.6.8c-2.8 0-5.1-2.2-5.1-5S4.3 2 7.1 2s5.1 2.3 5.1 5.1-2.3 5-5.1 5z"/></symbol><symbol id="icon-icon-twitter" viewBox="0 0 16 14"><path d="M16 2c-.6.3-1.2.4-1.9.5.7-.4 1.2-1 1.4-1.8-.6.4-1.3.6-2.1.8-.6-.6-1.5-1-2.4-1C9.3.5 7.8 2 7.8 3.8c0 .3 0 .5.1.7-2.7-.1-5.2-1.4-6.8-3.4-.3.5-.4 1-.4 1.7 0 1.1.6 2.1 1.5 2.7-.5 0-1-.2-1.5-.4C.7 6.7 1.8 8 3.3 8.3c-.3.1-.6.1-.9.1-.2 0-.4 0-.6-.1.4 1.3 1.6 2.3 3.1 2.3-1.1.9-2.5 1.4-4.1 1.4H0c1.5.9 3.2 1.5 5 1.5 6 0 9.3-5 9.3-9.3v-.4C15 3.3 15.6 2.7 16 2z"/></symbol><symbol id="icon-rc-logo" viewBox="0 0 500 283"><path d="M16.2 113c8.4 0 14.8 1.5 19.3 4.5s6.7 7.6 6.7 13.9a16 16 0 0 1-2.7 9.6 17.45 17.45 0 0 1-7.8 5.8q1.65 2.1 3.6 4.8c1.2 1.8 2.5 3.7 3.7 5.7s2.4 4 3.5 6.1 2.2 4.2 3.2 6.3H31.6c-1-1.8-2.1-3.7-3.1-5.6s-2.1-3.7-3.2-5.5-2.2-3.5-3.3-5-2.2-3-3.2-4.3h-6.2v20.4H0v-55.2a75.81 75.81 0 0 1 8.5-1.1 69.76 69.76 0 0 1 7.7-.4zm.7 10.7a20.08 20.08 0 0 0-2.5.1c-.7.1-1.4.1-2.1.2v15.2h3.6q7.05 0 10.2-1.8c2-1.2 3.1-3.2 3.1-6.1a6.26 6.26 0 0 0-3.1-5.9c-2.1-1.1-5.2-1.7-9.2-1.7zm29.9 25a27 27 0 0 1 1.7-9.9 22.33 22.33 0 0 1 4.6-7.1 20.07 20.07 0 0 1 14.1-5.8c6 0 10.8 1.8 14.3 5.5s5.3 9.1 5.3 16.3a18.48 18.48 0 0 1-.1 2.3c-.1.8-.1 1.6-.2 2.2H59.2a8 8 0 0 0 3.5 5.9c2 1.5 4.8 2.2 8.2 2.2a34.93 34.93 0 0 0 6.5-.6 23.44 23.44 0 0 0 5.2-1.5l1.6 9.8c-.6.3-1.5.6-2.6 1a32.14 32.14 0 0 1-3.6.8q-2 .3-4.2.6a33.89 33.89 0 0 1-4.5.2 27.92 27.92 0 0 1-10-1.7 19.41 19.41 0 0 1-7-4.6 18.26 18.26 0 0 1-4.1-7 23.89 23.89 0 0 1-1.4-8.6zm28.2-4.6a15.66 15.66 0 0 0-.5-3 8.16 8.16 0 0 0-1.4-2.6 7.1 7.1 0 0 0-2.3-1.9 7.28 7.28 0 0 0-3.5-.7 7.82 7.82 0 0 0-3.5.7 7.56 7.56 0 0 0-2.4 1.8 11 11 0 0 0-1.5 2.6 16.66 16.66 0 0 0-.8 3H75zm56.4 24.1c-1.1.3-2.3.6-3.7.9s-2.9.6-4.4.8-3.1.4-4.7.5-3.1.2-4.6.2a27.67 27.67 0 0 1-9.4-1.5 18.18 18.18 0 0 1-6.9-4.4 18.78 18.78 0 0 1-4.3-6.9 26.5 26.5 0 0 1-1.5-9.2 29.87 29.87 0 0 1 1.3-9.3 21.73 21.73 0 0 1 3.7-7.1 16.05 16.05 0 0 1 5.9-4.4 21.49 21.49 0 0 1 12.5-1 21.19 21.19 0 0 1 4 1.4v-13.5l12-1.9v55.4zM104.2 148c0 3.7.8 6.7 2.5 9s4.1 3.4 7.4 3.4a28.13 28.13 0 0 0 3-.1c.9-.1 1.7-.2 2.3-.3v-21.9a9.74 9.74 0 0 0-2.9-1.2 15 15 0 0 0-3.7-.5c-5.7 0-8.6 3.9-8.6 11.6z"/><path d="M254 170.4a31.92 31.92 0 0 1-8.5-1.1 13.61 13.61 0 0 1-5.2-2.9 10.05 10.05 0 0 1-2.6-4.6 22.73 22.73 0 0 1-.7-6.1v-41.1l12-1.9v40.6a24.77 24.77 0 0 0 .2 2.9 6.34 6.34 0 0 0 .9 2.2 5.26 5.26 0 0 0 2 1.5 10.26 10.26 0 0 0 3.5.7zm-86.9.3c-9.1 0-16-2.5-20.8-7.6s-7.1-12.2-7.1-21.6a32.26 32.26 0 0 1 2.2-12.4 26.69 26.69 0 0 1 6-9.2 24.71 24.71 0 0 1 9-5.7 32.48 32.48 0 0 1 11.4-1.9 42.94 42.94 0 0 1 6.5.5q2.85.6 5.1 1.2a22.64 22.64 0 0 1 3.6 1.4c1 .5 1.7.9 2.1 1.1l-3.6 10.2a27.83 27.83 0 0 0-6-2.3 30.75 30.75 0 0 0-7.8-1 16.32 16.32 0 0 0-5.7 1 12.06 12.06 0 0 0-4.9 3.1 15.12 15.12 0 0 0-3.4 5.5 22.4 22.4 0 0 0-1.3 8.2 32.39 32.39 0 0 0 .8 7.2 17.24 17.24 0 0 0 2.7 5.8 12.81 12.81 0 0 0 5 3.8 18.09 18.09 0 0 0 7.4 1.4 35.77 35.77 0 0 0 4.9-.3 33.33 33.33 0 0 0 3.9-.8 21.08 21.08 0 0 0 3-1 25.05 25.05 0 0 0 2.3-1.1l3.5 10.1a30.89 30.89 0 0 1-7.5 2.9 36.38 36.38 0 0 1-11.3 1.5zm62.7-22.4a27.31 27.31 0 0 1-1.5 9.2 20.89 20.89 0 0 1-4.2 7.1 18.26 18.26 0 0 1-6.6 4.6 21.61 21.61 0 0 1-8.6 1.6 21.12 21.12 0 0 1-8.5-1.6 18.26 18.26 0 0 1-6.6-4.6 21.1 21.1 0 0 1-4.3-7.1 26.9 26.9 0 0 1-1.5-9.2 24.17 24.17 0 0 1 1.6-9.1 20.85 20.85 0 0 1 4.4-7 21.48 21.48 0 0 1 6.6-4.5 21 21 0 0 1 8.4-1.6 20.63 20.63 0 0 1 8.4 1.6 19.34 19.34 0 0 1 6.6 4.5 20.64 20.64 0 0 1 4.3 7 25.92 25.92 0 0 1 1.5 9.1zm-12.3 0c0-3.7-.7-6.6-2.2-8.8a7.34 7.34 0 0 0-6.3-3.2 7.52 7.52 0 0 0-6.4 3.2c-1.5 2.1-2.3 5-2.3 8.8s.8 6.7 2.3 8.8a7.25 7.25 0 0 0 6.4 3.3 7.08 7.08 0 0 0 6.3-3.3c1.5-2.2 2.2-5.1 2.2-8.8zm59.6-22.3a28.16 28.16 0 0 1 8.9 1.2 13.49 13.49 0 0 1 5.7 3.5 12.8 12.8 0 0 1 3 5.5 27.3 27.3 0 0 1 .9 7.2v25c-1.7.4-4.1.8-7.2 1.3a70.25 70.25 0 0 1-11.1.8 35.41 35.41 0 0 1-7.5-.7 16.88 16.88 0 0 1-5.8-2.4 10.29 10.29 0 0 1-3.7-4.3 14.51 14.51 0 0 1-1.3-6.5 12.24 12.24 0 0 1 1.5-6.3 11.23 11.23 0 0 1 4-4.1 17.81 17.81 0 0 1 5.7-2.2 29.89 29.89 0 0 1 6.7-.7c1.6 0 2.9.1 4.2.2a15.54 15.54 0 0 1 2.9.5v-1.1a6.41 6.41 0 0 0-1.9-4.9c-1.2-1.2-3.4-1.9-6.5-1.9a41.67 41.67 0 0 0-6.1.4 23.23 23.23 0 0 0-5.2 1.3l-1.5-9.7c.7-.2 1.6-.4 2.6-.7a34.31 34.31 0 0 1 3.4-.6c1.2-.2 2.5-.3 3.9-.5a22.71 22.71 0 0 1 4.4-.3zm.9 35.2c1.2 0 2.3 0 3.4-.1s1.9-.1 2.6-.2v-9.1c-.5-.1-1.2-.2-2.2-.3s-1.9-.2-2.7-.2c-1.1 0-2.2.1-3.2.2a6.63 6.63 0 0 0-2.6.8 5.35 5.35 0 0 0-1.8 1.5 4.5 4.5 0 0 0-.6 2.4c0 1.9.6 3.2 1.9 3.9a10.86 10.86 0 0 0 5.2 1.1zm65.9-12.9a26.5 26.5 0 0 1-1.5 9.2 19.19 19.19 0 0 1-4.3 7 20.63 20.63 0 0 1-6.9 4.5 25 25 0 0 1-9.4 1.6c-1.5 0-3-.1-4.6-.2s-3.1-.3-4.7-.5-3-.5-4.4-.8-2.6-.6-3.7-.9v-53.7l12-1.9V128a18.84 18.84 0 0 1 4.2-1.4 23.35 23.35 0 0 1 4.7-.5 18.44 18.44 0 0 1 8 1.6 15.18 15.18 0 0 1 5.8 4.5 21.05 21.05 0 0 1 3.6 7 32.84 32.84 0 0 1 1.2 9.1zm-12.2-.3c0-7.8-2.9-11.6-8.6-11.6a15.69 15.69 0 0 0-3.7.5 8.73 8.73 0 0 0-2.9 1.2V160c.6.1 1.3.2 2.3.3a28.13 28.13 0 0 0 3 .1c3.3 0 5.8-1.1 7.4-3.4a15.46 15.46 0 0 0 2.5-9zm59.3.3a27.31 27.31 0 0 1-1.5 9.2 20.89 20.89 0 0 1-4.2 7.1 18.26 18.26 0 0 1-6.6 4.6 21.61 21.61 0 0 1-8.6 1.6 21.12 21.12 0 0 1-8.5-1.6 18.26 18.26 0 0 1-6.6-4.6 21.1 21.1 0 0 1-4.3-7.1 26.9 26.9 0 0 1-1.5-9.2 24.17 24.17 0 0 1 1.6-9.1 20.85 20.85 0 0 1 4.4-7 21.48 21.48 0 0 1 6.6-4.5 21 21 0 0 1 8.4-1.6 20.63 20.63 0 0 1 8.4 1.6 19.34 19.34 0 0 1 6.6 4.5 20.64 20.64 0 0 1 4.3 7 28.43 28.43 0 0 1 1.5 9.1zm-12.3 0c0-3.7-.7-6.6-2.2-8.8a7.34 7.34 0 0 0-6.3-3.2 7.52 7.52 0 0 0-6.4 3.2c-1.5 2.1-2.3 5-2.3 8.8s.8 6.7 2.3 8.8a7.25 7.25 0 0 0 6.4 3.3 7.08 7.08 0 0 0 6.3-3.3 16.12 16.12 0 0 0 2.2-8.8zm45.1-10.5a27.77 27.77 0 0 0-3.8-.8 23.52 23.52 0 0 0-4.7-.4c-.8 0-1.7.1-2.7.2a23.47 23.47 0 0 0-2.4.4v32.5h-12v-40.2a54.53 54.53 0 0 1 7.6-2.1 42.2 42.2 0 0 1 9.8-1 20.15 20.15 0 0 1 2.3.1l2.7.3a25.58 25.58 0 0 1 2.7.5 10.49 10.49 0 0 1 2.3.7zm21-11.8a28.16 28.16 0 0 1 8.9 1.2 13.49 13.49 0 0 1 5.7 3.5 12.8 12.8 0 0 1 3 5.5 27.3 27.3 0 0 1 .9 7.2v25c-1.7.4-4.1.8-7.2 1.3a70.25 70.25 0 0 1-11.1.8 35.41 35.41 0 0 1-7.5-.7 16.88 16.88 0 0 1-5.8-2.4 10.29 10.29 0 0 1-3.7-4.3 14.51 14.51 0 0 1-1.3-6.5 12.24 12.24 0 0 1 1.5-6.3 11.23 11.23 0 0 1 4-4.1 17.81 17.81 0 0 1 5.7-2.2 29.89 29.89 0 0 1 6.7-.7c1.6 0 2.9.1 4.2.2a15.54 15.54 0 0 1 2.9.5v-1.1a6.41 6.41 0 0 0-1.9-4.9c-1.2-1.2-3.4-1.9-6.5-1.9a41.67 41.67 0 0 0-6.1.4 23.23 23.23 0 0 0-5.2 1.3l-1.5-9.7c.7-.2 1.6-.4 2.6-.7a34.3 34.3 0 0 1 3.4-.6c1.2-.2 2.5-.3 3.9-.5a22.71 22.71 0 0 1 4.4-.3zm.9 35.2c1.2 0 2.3 0 3.4-.1s1.9-.1 2.6-.2v-9.1c-.5-.1-1.2-.2-2.2-.3s-1.9-.2-2.7-.2c-1.1 0-2.2.1-3.2.2a6.63 6.63 0 0 0-2.6.8 5.35 5.35 0 0 0-1.8 1.5 4.5 4.5 0 0 0-.6 2.4c0 1.9.6 3.2 1.9 3.9a10.86 10.86 0 0 0 5.2 1.1zm52-23.4a27.78 27.78 0 0 0-3.8-.8 23.52 23.52 0 0 0-4.7-.4c-.8 0-1.7.1-2.7.2a23.47 23.47 0 0 0-2.4.4v32.5h-12v-40.2a54.53 54.53 0 0 1 7.6-2.1 42.2 42.2 0 0 1 9.8-1 20.15 20.15 0 0 1 2.3.1l2.7.3a25.58 25.58 0 0 1 2.7.5 10.49 10.49 0 0 1 2.3.7z"/><path d="M133.3 106.4l1.6-.3c.4-2.4.9-4.8 1.4-7.2-1 2.5-2.1 5-3 7.5z"/><path d="M149.8 75.8a120.93 120.93 0 0 0-8.5 24.8 121.4 121.4 0 0 1 110.6-71.5 111.22 111.22 0 0 1 11.6.6c2.6-.2 5.3-.3 7.9-.3a109.93 109.93 0 0 0-18-5.4h-1.5a126.08 126.08 0 0 0-102.1 51.8zm171.7-30.9a116.64 116.64 0 0 0-18.3-6.4c2.6 1.9 5.1 3.9 7.5 5.9a121.57 121.57 0 0 1 58.6 75.8h1.5a25.79 25.79 0 0 1 3.9.4 126.71 126.71 0 0 0-53.2-75.7zm53.6 133.7a132.46 132.46 0 0 1-13.4 23.1 121.52 121.52 0 0 1-109.8 69.9 115.78 115.78 0 0 1-20.5-1.8 119.67 119.67 0 0 0 29.4 6.6 126.53 126.53 0 0 0 114.3-97.8zm-205.2 68a117.43 117.43 0 0 0 23.3 9.9 121.83 121.83 0 0 1-60.3-82.7 33.33 33.33 0 0 1-4 1c-.2 0-.4.1-.7.1l-.2.1h-.1a126.53 126.53 0 0 0 42 71.6z"/><path d="M272.4 34.5a109.31 109.31 0 0 1 11.5.6c-4.1-2.1-8.2-4-12.5-5.7-2.7 0-5.3.1-7.9.3a126.84 126.84 0 0 0-108.3 78.8c.7-.2 1.3-.4 2.1-.6 1.4-.4 2.8-.6 4.2-.9a121.21 121.21 0 0 1 110.9-72.5zM151.6 192.9a127 127 0 0 0 46.3 64.9q6.6 1.65 13.5 2.7a121.49 121.49 0 0 1-55-69.7 130.66 130.66 0 0 1-3.8-16.7 19.89 19.89 0 0 1-3.6-1.7c-.7-.4-1.3-.8-2-1.2.1.5.1.9.2 1.4a126.53 126.53 0 0 0 4.4 20.3z"/><path d="M109.9 120.4a120.56 120.56 0 0 1 64.3-86.3 113 113 0 0 1 17.2-7.1 121.12 121.12 0 0 1 36.8-5.8 116.51 116.51 0 0 1 25.2 2.7 120.67 120.67 0 0 1 18 5.4 128.9 128.9 0 0 1 12.5 5.7 120.25 120.25 0 0 1 64 96.8 22.84 22.84 0 0 1 3-3.8l.3-.3a22.2 22.2 0 0 1 3.3-2.8 127.74 127.74 0 0 0-43.9-80.6c-2.4-2.1-4.9-4-7.5-5.9a115 115 0 0 0-11.9-7.7l-2.1-1.2A127.51 127.51 0 0 0 228 13.9c-4.6 0-9.1.3-13.6.7a127.09 127.09 0 0 0-112.3 107.1 26.12 26.12 0 0 1 6.3-1.3 7.5 7.5 0 0 0 1.5 0zM228.2 269h.8a126.81 126.81 0 0 0 70.1-21.6 123.43 123.43 0 0 0 15.1-11.9 127.92 127.92 0 0 0 38.2-65.4 12.09 12.09 0 0 1-1.6-1.6c-.5-.6-1-1.2-1.6-1.9a29.59 29.59 0 0 1-2.6-4.2c-.1.1-.1.2-.2.3a120.66 120.66 0 0 1-57 82 126.68 126.68 0 0 1-16.5 8.2 119.56 119.56 0 0 1-44.8 8.7 116.57 116.57 0 0 1-16.8-1.2 100.79 100.79 0 0 1-13.5-2.7c-1.6-.4-3.1-.9-4.7-1.3a117.43 117.43 0 0 1-23.3-9.9 120.85 120.85 0 0 1-56.8-70.2 14.77 14.77 0 0 1-2.1-.1 35.08 35.08 0 0 1-5.8-1 128.11 128.11 0 0 0 95.5 90.7 131.76 131.76 0 0 0 14 2.3 124 124 0 0 0 13.6.8z"/><path d="M259.6 6a121.41 121.41 0 0 1 108.5 67.2 128.72 128.72 0 0 1 12.4 16.9C364.6 38.5 316.4.8 259.6.8a126 126 0 0 0-63.8 17.3 128.39 128.39 0 0 1 18.7-3.4A121.11 121.11 0 0 1 259.6 6zM156.3 190.8a116.93 116.93 0 0 0 7.6 19.1 126.32 126.32 0 0 0 95.7 43.8 119 119 0 0 0 13.4-.7 120.7 120.7 0 0 0 16.5-8.2 123.06 123.06 0 0 1-29.9 3.7 121.4 121.4 0 0 1-103.3-57.7zm157.9 44.7a125.51 125.51 0 0 1-15.1 11.9 127 127 0 0 0 62.5-45.6 120.9 120.9 0 0 0 13.4-23.1c.4-.9.8-1.8 1.2-2.8a23.25 23.25 0 0 1-2.8.5 11.48 11.48 0 0 1-1.8.1h-1.3c-.1.2-.1.3-.2.5a121.69 121.69 0 0 1-55.9 58.5zm-167.1-62.9a12.2 12.2 0 0 0-.7-1.7 26.71 26.71 0 0 1-4.4-3.8l-.2-.2a30.93 30.93 0 0 1-4-5.5 127.08 127.08 0 0 0 13.7 31.6 157.64 157.64 0 0 1-4.4-20.4zm228.6-80.4a123.92 123.92 0 0 1 5.1 30h.1a27 27 0 0 1 2.9 1.5c.8.5 1.5 1 2.3 1.5a118.22 118.22 0 0 0-1.1-14.7 131 131 0 0 0-9.3-18.3zM174.2 34.1a126.64 126.64 0 0 0-37.8 64.8c-.5 2.4-1 4.8-1.4 7.2l5.4-.9c.3-1.6.6-3.1.9-4.7a119.08 119.08 0 0 1 8.5-24.8 122.27 122.27 0 0 1 41.6-48.8 138.32 138.32 0 0 0-17.2 7.2z"/><path d="M392.4 175.4h-.3A121.49 121.49 0 0 1 272.4 277a111.22 111.22 0 0 1-11.6-.6 119.67 119.67 0 0 1-29.4-6.6l-2.4-.9h-.8a119 119 0 0 1-13.4-.7 132.59 132.59 0 0 0 15.4 6.7 125.71 125.71 0 0 0 42.3 7.3c63 0 115.4-46.4 124.9-106.8zm-11.9-85.3a128.72 128.72 0 0 0-12.4-16.9 126.6 126.6 0 0 0-74-42c-.9-.2-1.8-.3-2.8-.5a134.35 134.35 0 0 1 11.9 7.7 127.82 127.82 0 0 1 18.3 6.4 122.17 122.17 0 0 1 54.2 47.3 124.21 124.21 0 0 1 9.2 18.2 135.44 135.44 0 0 1 5.1 15.6l4.9-1.7a125.39 125.39 0 0 0-14.4-34.1z"/></symbol></svg>