<svg xmlns="http://www.w3.org/2000/svg" width="29" height="32" viewBox="0 0 29 32">
  <g fill="#323C50">
    <path d="M26.041 21.7741089C23.698 20.8931818 19.7935 19.8421053 14.5 19.8421053 9.2065 19.8421053 5.302 20.8931818 2.959 21.7741089 1.189 22.4401376 0 24.2092763 0 26.1766627L0 30.7691388C0 31.0563636.224 31.2894737.5 31.2894737L28.5 31.2894737C28.776 31.2894737 29 31.0563636 29 30.7691388L29 26.1766627C29 24.2092763 27.811 22.4401376 26.041 21.7741089zM14.5 16.7894737C18.7080526 16.7894737 22.1315789 13.4666393 22.1315789 9.38235294L22.1315789 7.40712074C22.1315789 3.32283437 18.7080526 0 14.5 0 10.2919474 0 6.86842105 3.32283437 6.86842105 7.40712074L6.86842105 9.38235294C6.86842105 13.4666393 10.2919474 16.7894737 14.5 16.7894737z"/>
  </g>
</svg>
