<svg id="da25d883-01c0-4e60-a156-47876bc3cc66" data-name="Layer 1" xmlns="http://www.w3.org/2000/svg" viewBox="0 0 24 24"><title>linkArtboard 1</title><path d="M14,16A6,6,0,0,1,9.2,13.6a1,1,0,0,1,1.6-1.2,4,4,0,0,0,6,.43l3-3a4,4,0,0,0-5.67-5.64l-1.71,1.7A1,1,0,1,1,11,4.47l1.72-1.71a6,6,0,0,1,8.5,8.47l-3,3A6,6,0,0,1,14,16Z" style="fill:#95989e"/><path d="M7.05,22.94A6,6,0,0,1,2.74,12.77l3-3a6,6,0,0,1,9,.65,1,1,0,0,1-1.6,1.2,4,4,0,0,0-5.6-.81,4,4,0,0,0-.43.38l-3,3a4,4,0,0,0,5.67,5.64l1.7-1.7a1,1,0,0,1,1.41,1.41l-1.71,1.71A6,6,0,0,1,7.05,22.94Z" style="fill:#95989e"/></svg>