<svg xmlns="http://www.w3.org/2000/svg" width="37" height="30" viewBox="0 0 37 30">
  <g fill="#323C50">
    <path d="M27 14C30.3234 14 33 10.1206818 33 6.90909091 33 3.65081818 30.3084 1 27 1 23.6916 1 21 3.65081818 21 6.90909091 21 10.1206818 23.6766 14 27 14zM12 16C15.9421667 16 19 11.3686154 19 7.38461538 19 3.31261538 15.8599167 0 12 0 8.14008333 0 5 3.31261538 5 7.38461538 5 11.3686154 8.05783333 16 12 16zM34.3784346 19.248C32.8787697 18.6788571 30.4514832 18 27.4059822 18 24.3604811 18 21.9331946 18.6788571 20.4335297 19.248 20.2836232 19.3051429 20.1409121 19.3748571 20 19.4474286 20.4832986 19.6302857 20.9324186 19.8154286 21.3185778 19.9948571 23.5593806 21.0354286 25.0074777 23.2508571 25.0074777 25.64L25.0074777 26 36.4003739 26C36.7319671 26 37 25.744 37 25.4285714L37 22.9577143C37 21.3091429 35.9710416 19.8525714 34.3784346 19.248z"/>
    <path d="M20.9832,21.0099444 C19.1358,20.0932778 16.077,19 12,19 C7.923,19 4.8642,20.0932778 3.0168,21.0099444 C1.1844,21.9192778 0,23.8577222 0,25.9483333 L0,29.3888889 C0,29.7262222 0.2682,30 0.6,30 L23.4,30 C23.7318,30 24,29.7262222 24,29.3888889 L24,25.9483333 C24,23.8577222 22.8156,21.9192778 20.9832,21.0099444 Z"/>
  </g>
</svg>
