<svg xmlns="http://www.w3.org/2000/svg" width="15" height="18" viewBox="0 0 15 18">
  <path fill="#323C50" d="M7.5,0 C3.32142857,0 0,3.32142857 0,7.5 C0,9.53571429 0.75,11.4642857 2.25,12.8571429 C2.35714286,12.9642857 6.64285714,16.8214286 6.75,16.9285714 C7.17857143,17.25 7.82142857,17.25 8.14285714,16.9285714 C8.25,16.8214286 12.6428571,12.9642857 12.6428571,12.8571429 C14.1428571,11.4642857 14.8928571,9.53571429 14.8928571,7.5 C15,3.32142857 11.6785714,0 7.5,0 Z M7.5,9.64285714 C6.32142857,9.64285714 5.35714286,8.67857143 5.35714286,7.5 C5.35714286,6.32142857 6.32142857,5.35714286 7.5,5.35714286 C8.67857143,5.35714286 9.64285714,6.32142857 9.64285714,7.5 C9.64285714,8.67857143 8.67857143,9.64285714 7.5,9.64285714 Z"/>
</svg>
