<svg xmlns="http://www.w3.org/2000/svg" width="18" height="17" viewBox="0 0 18 17">
  <path fill="#fc6361" stroke="#fc6361" d="M7.2593801,14.6079511 C7.45840131,14.8168807 7.72593801,14.9333333 8.00652529,14.9333333 C8.28384992,14.9333333 8.55791191,14.8134557 8.75367047,14.6079511 L14.6166395,8.45308869 C15.5073409,7.51804281 15.9967374,6.27474006 16,4.95608563 C16,3.63400612 15.5106036,2.39070336 14.6199021,1.45565749 C13.7292007,0.520611621 12.548124,0.00685015291 11.2887439,0.00685015291 C10.0522023,0.00685015291 8.88743883,0.503486239 8.00326264,1.40770642 C7.11582382,0.500061162 5.94779772,0 4.70799347,0 C3.45187602,0 2.27079935,0.513761468 1.38009788,1.44538226 C0.489396411,2.38042813 0,3.62373089 0,4.9458104 C0,6.26446483 0.492659054,7.50776758 1.38336052,8.44281346 L7.2593801,14.6079511 Z" transform="translate(1 1)"/>
</svg>
