<svg xmlns="http://www.w3.org/2000/svg" width="17" height="17" viewBox="0 0 17 17">
  <path fill="#323C50" d="M16.0809375,7.208 C14.6965,6.861625 14.039875,5.276375 14.7740625,4.0534375 C15.1161875,3.4839375 15.013125,2.9930625 14.6741875,2.6551875 L14.3448125,2.3258125 C14.0069375,1.9879375 13.5160625,1.884875 12.9465625,2.2259375 C11.7225625,2.960125 10.1373125,2.3035 9.792,0.9190625 C9.6315625,0.274125 9.2108125,0 8.7326875,0 L8.2673125,0 C7.7891875,0 7.3695,0.274125 7.208,0.9190625 C6.861625,2.3035 5.276375,2.960125 4.0534375,2.2259375 C3.4839375,1.8838125 2.992,1.986875 2.654125,2.32475 L2.32475,2.654125 C1.986875,2.992 1.8838125,3.4839375 2.2259375,4.0534375 C2.960125,5.2774375 2.3035,6.8626875 0.9190625,7.208 C0.27625,7.3684375 0,7.788125 0,8.2673125 L0,8.7326875 C0,9.2108125 0.274125,9.6305 0.9190625,9.792 C2.3035,10.138375 2.960125,11.723625 2.2259375,12.9465625 C1.8838125,13.5160625 1.986875,14.0069375 2.3258125,14.3448125 L2.6551875,14.6741875 C2.994125,15.013125 3.4860625,15.115125 4.0534375,14.7740625 C5.2774375,14.039875 6.8626875,14.6965 7.208,16.0809375 C7.3684375,16.725875 7.7891875,17 8.2673125,17 L8.7326875,17 C9.2108125,17 9.6305,16.725875 9.792,16.0809375 C10.138375,14.6965 11.723625,14.039875 12.9465625,14.7740625 C13.515,15.115125 14.005875,15.013125 14.3448125,14.6741875 L14.6741875,14.3448125 C15.0120625,14.0069375 15.115125,13.5160625 14.7740625,12.9465625 C14.039875,11.7225625 14.6965,10.1373125 16.0809375,9.792 C16.725875,9.6315625 17,9.2108125 17,8.7326875 L17,8.2673125 C17,7.788125 16.72375,7.3684375 16.0809375,7.208 Z M8.5,11.6875 C6.7394375,11.6875 5.3125,10.2605625 5.3125,8.5 C5.3125,6.7394375 6.7394375,5.3125 8.5,5.3125 C10.2605625,5.3125 11.6875,6.7394375 11.6875,8.5 C11.6875,10.2605625 10.2605625,11.6875 8.5,11.6875 Z"/>
</svg>
