<svg xmlns="http://www.w3.org/2000/svg" width="17" height="17" viewBox="0 0 17 17">
  <path fill="#D63D3B" d="M8.5,0 C3.80375,0 0,3.80375 0,8.5 C0,13.19625 3.80375,17 8.5,17 C13.19625,17 17,13.19625 17,8.5 C17,3.80375 13.19625,0 8.5,0 Z M8.5,15.3 C4.743,15.3 1.7,12.257 1.7,8.5 C1.7,6.9275 2.23975,5.48675 3.13225,4.335 L12.665,13.86775 C11.51325,14.76025 10.0725,15.3 8.5,15.3 Z M13.86775,12.665 L4.335,3.13225 C5.48675,2.23975 6.9275,1.7 8.5,1.7 C12.257,1.7 15.3,4.743 15.3,8.5 C15.3,10.0725 14.76025,11.51325 13.86775,12.665 Z"/>
</svg>
