<svg xmlns="http://www.w3.org/2000/svg" width="15" height="19" viewBox="0 0 15 19">
  <path fill="#323C50" d="M7.5,18.28125 C8.53125,18.28125 9.375,17.4375 9.375,16.40625 L5.625,16.40625 C5.625,17.4375 6.459375,18.28125 7.5,18.28125 Z M13.125,12.65625 L13.125,7.96875 C13.125,5.090625 11.5875,2.68125 8.90625,2.04375 L8.90625,1.40625 C8.90625,0.628125 8.278125,0 7.5,0 C6.721875,0 6.09375,0.628125 6.09375,1.40625 L6.09375,2.04375 C3.403125,2.68125 1.875,5.08125 1.875,7.96875 L1.875,12.65625 L0,14.53125 L0,15.46875 L15,15.46875 L15,14.53125 L13.125,12.65625 Z"/>
</svg>
