<svg id="ed9760a2-a6b4-4903-9477-9064f5abe97d" data-name="Layer 1" xmlns="http://www.w3.org/2000/svg" viewBox="0 0 500 283"><title>startArtboard 1</title><path d="M16.2,113c8.4,0,14.8,1.5,19.3,4.5s6.7,7.6,6.7,13.9a16,16,0,0,1-2.7,9.6,17.45,17.45,0,0,1-7.8,5.8q1.65,2.1,3.6,4.8c1.2,1.8,2.5,3.7,3.7,5.7s2.4,4,3.5,6.1,2.2,4.2,3.2,6.3H31.6c-1-1.8-2.1-3.7-3.1-5.6s-2.1-3.7-3.2-5.5-2.2-3.5-3.3-5-2.2-3-3.2-4.3H12.6v20.4H0V114.5a75.81,75.81,0,0,1,8.5-1.1A69.76,69.76,0,0,1,16.2,113Zm.7,10.7a20.08,20.08,0,0,0-2.5.1c-.7.1-1.4.1-2.1.2v15.2h3.6q7.05,0,10.2-1.8c2-1.2,3.1-3.2,3.1-6.1a6.26,6.26,0,0,0-3.1-5.9C24,124.3,20.9,123.7,16.9,123.7Zm29.9,25a27,27,0,0,1,1.7-9.9,22.33,22.33,0,0,1,4.6-7.1,20.07,20.07,0,0,1,14.1-5.8c6,0,10.8,1.8,14.3,5.5s5.3,9.1,5.3,16.3a18.48,18.48,0,0,1-.1,2.3c-.1.8-.1,1.6-.2,2.2H59.2a8,8,0,0,0,3.5,5.9c2,1.5,4.8,2.2,8.2,2.2a34.93,34.93,0,0,0,6.5-.6,23.44,23.44,0,0,0,5.2-1.5l1.6,9.8c-.6.3-1.5.6-2.6,1a32.14,32.14,0,0,1-3.6.8q-2,.3-4.2.6a33.89,33.89,0,0,1-4.5.2,27.92,27.92,0,0,1-10-1.7,19.41,19.41,0,0,1-7-4.6,18.26,18.26,0,0,1-4.1-7A23.89,23.89,0,0,1,46.8,148.7ZM75,144.1a15.66,15.66,0,0,0-.5-3,8.16,8.16,0,0,0-1.4-2.6,7.1,7.1,0,0,0-2.3-1.9,7.28,7.28,0,0,0-3.5-.7,7.82,7.82,0,0,0-3.5.7,7.56,7.56,0,0,0-2.4,1.8,11,11,0,0,0-1.5,2.6,16.66,16.66,0,0,0-.8,3H75Zm56.4,24.1c-1.1.3-2.3.6-3.7.9s-2.9.6-4.4.8-3.1.4-4.7.5-3.1.2-4.6.2a27.67,27.67,0,0,1-9.4-1.5,18.18,18.18,0,0,1-6.9-4.4,18.78,18.78,0,0,1-4.3-6.9,26.5,26.5,0,0,1-1.5-9.2,29.87,29.87,0,0,1,1.3-9.3,21.73,21.73,0,0,1,3.7-7.1,16.05,16.05,0,0,1,5.9-4.4,21.49,21.49,0,0,1,12.5-1,21.19,21.19,0,0,1,4,1.4V114.7l12-1.9v55.4ZM104.2,148c0,3.7.8,6.7,2.5,9s4.1,3.4,7.4,3.4a28.13,28.13,0,0,0,3-.1c.9-.1,1.7-.2,2.3-.3V138.1a9.74,9.74,0,0,0-2.9-1.2,15,15,0,0,0-3.7-.5C107.1,136.4,104.2,140.3,104.2,148Z" style="fill:#f96260"/><path d="M254,170.4a31.92,31.92,0,0,1-8.5-1.1,13.61,13.61,0,0,1-5.2-2.9,10.05,10.05,0,0,1-2.6-4.6,22.73,22.73,0,0,1-.7-6.1V114.6l12-1.9v40.6a24.77,24.77,0,0,0,.2,2.9,6.34,6.34,0,0,0,.9,2.2,5.26,5.26,0,0,0,2,1.5,10.26,10.26,0,0,0,3.5.7Zm-86.9.3c-9.1,0-16-2.5-20.8-7.6s-7.1-12.2-7.1-21.6a32.26,32.26,0,0,1,2.2-12.4,26.69,26.69,0,0,1,6-9.2,24.71,24.71,0,0,1,9-5.7,32.48,32.48,0,0,1,11.4-1.9,42.94,42.94,0,0,1,6.5.5q2.85.6,5.1,1.2a22.64,22.64,0,0,1,3.6,1.4c1,.5,1.7.9,2.1,1.1l-3.6,10.2a27.83,27.83,0,0,0-6-2.3,30.75,30.75,0,0,0-7.8-1,16.32,16.32,0,0,0-5.7,1,12.06,12.06,0,0,0-4.9,3.1,15.12,15.12,0,0,0-3.4,5.5,22.4,22.4,0,0,0-1.3,8.2,32.39,32.39,0,0,0,.8,7.2,17.24,17.24,0,0,0,2.7,5.8,12.81,12.81,0,0,0,5,3.8,18.09,18.09,0,0,0,7.4,1.4,35.77,35.77,0,0,0,4.9-.3,33.33,33.33,0,0,0,3.9-.8,21.08,21.08,0,0,0,3-1,25.05,25.05,0,0,0,2.3-1.1l3.5,10.1a30.89,30.89,0,0,1-7.5,2.9A36.38,36.38,0,0,1,167.1,170.7Zm62.7-22.4a27.31,27.31,0,0,1-1.5,9.2,20.89,20.89,0,0,1-4.2,7.1,18.26,18.26,0,0,1-6.6,4.6,21.61,21.61,0,0,1-8.6,1.6,21.12,21.12,0,0,1-8.5-1.6,18.26,18.26,0,0,1-6.6-4.6,21.1,21.1,0,0,1-4.3-7.1,26.9,26.9,0,0,1-1.5-9.2,24.17,24.17,0,0,1,1.6-9.1,20.85,20.85,0,0,1,4.4-7,21.48,21.48,0,0,1,6.6-4.5,21,21,0,0,1,8.4-1.6,20.63,20.63,0,0,1,8.4,1.6,19.34,19.34,0,0,1,6.6,4.5,20.64,20.64,0,0,1,4.3,7A25.92,25.92,0,0,1,229.8,148.3Zm-12.3,0c0-3.7-.7-6.6-2.2-8.8a7.34,7.34,0,0,0-6.3-3.2,7.52,7.52,0,0,0-6.4,3.2c-1.5,2.1-2.3,5-2.3,8.8s.8,6.7,2.3,8.8a7.25,7.25,0,0,0,6.4,3.3,7.08,7.08,0,0,0,6.3-3.3C216.8,154.9,217.5,152,217.5,148.3ZM277.1,126a28.16,28.16,0,0,1,8.9,1.2,13.49,13.49,0,0,1,5.7,3.5,12.8,12.8,0,0,1,3,5.5,27.3,27.3,0,0,1,.9,7.2v25c-1.7.4-4.1.8-7.2,1.3a70.25,70.25,0,0,1-11.1.8,35.41,35.41,0,0,1-7.5-.7,16.88,16.88,0,0,1-5.8-2.4,10.29,10.29,0,0,1-3.7-4.3,14.51,14.51,0,0,1-1.3-6.5,12.24,12.24,0,0,1,1.5-6.3,11.23,11.23,0,0,1,4-4.1,17.81,17.81,0,0,1,5.7-2.2,29.89,29.89,0,0,1,6.7-.7c1.6,0,2.9.1,4.2.2a15.54,15.54,0,0,1,2.9.5v-1.1a6.41,6.41,0,0,0-1.9-4.9c-1.2-1.2-3.4-1.9-6.5-1.9a41.67,41.67,0,0,0-6.1.4,23.23,23.23,0,0,0-5.2,1.3l-1.5-9.7c.7-.2,1.6-.4,2.6-.7a34.31,34.31,0,0,1,3.4-.6c1.2-.2,2.5-.3,3.9-.5A22.71,22.71,0,0,1,277.1,126Zm.9,35.2c1.2,0,2.3,0,3.4-.1s1.9-.1,2.6-.2v-9.1c-.5-.1-1.2-.2-2.2-.3s-1.9-.2-2.7-.2c-1.1,0-2.2.1-3.2.2a6.63,6.63,0,0,0-2.6.8,5.35,5.35,0,0,0-1.8,1.5,4.5,4.5,0,0,0-.6,2.4c0,1.9.6,3.2,1.9,3.9A10.86,10.86,0,0,0,278,161.2Zm65.9-12.9a26.5,26.5,0,0,1-1.5,9.2,19.19,19.19,0,0,1-4.3,7,20.63,20.63,0,0,1-6.9,4.5,25,25,0,0,1-9.4,1.6c-1.5,0-3-.1-4.6-.2s-3.1-.3-4.7-.5-3-.5-4.4-.8-2.6-.6-3.7-.9V114.5l12-1.9V128a18.84,18.84,0,0,1,4.2-1.4,23.35,23.35,0,0,1,4.7-.5,18.44,18.44,0,0,1,8,1.6,15.18,15.18,0,0,1,5.8,4.5,21.05,21.05,0,0,1,3.6,7A32.84,32.84,0,0,1,343.9,148.3Zm-12.2-.3c0-7.8-2.9-11.6-8.6-11.6a15.69,15.69,0,0,0-3.7.5,8.73,8.73,0,0,0-2.9,1.2V160c.6.1,1.3.2,2.3.3a28.13,28.13,0,0,0,3,.1c3.3,0,5.8-1.1,7.4-3.4A15.46,15.46,0,0,0,331.7,148Zm59.3.3a27.31,27.31,0,0,1-1.5,9.2,20.89,20.89,0,0,1-4.2,7.1,18.26,18.26,0,0,1-6.6,4.6,21.61,21.61,0,0,1-8.6,1.6,21.12,21.12,0,0,1-8.5-1.6,18.26,18.26,0,0,1-6.6-4.6,21.1,21.1,0,0,1-4.3-7.1,26.9,26.9,0,0,1-1.5-9.2,24.17,24.17,0,0,1,1.6-9.1,20.85,20.85,0,0,1,4.4-7,21.48,21.48,0,0,1,6.6-4.5,21,21,0,0,1,8.4-1.6,20.63,20.63,0,0,1,8.4,1.6,19.34,19.34,0,0,1,6.6,4.5,20.64,20.64,0,0,1,4.3,7A28.43,28.43,0,0,1,391,148.3Zm-12.3,0c0-3.7-.7-6.6-2.2-8.8a7.34,7.34,0,0,0-6.3-3.2,7.52,7.52,0,0,0-6.4,3.2c-1.5,2.1-2.3,5-2.3,8.8s.8,6.7,2.3,8.8a7.25,7.25,0,0,0,6.4,3.3,7.08,7.08,0,0,0,6.3-3.3A16.12,16.12,0,0,0,378.7,148.3Zm45.1-10.5a27.77,27.77,0,0,0-3.8-.8,23.52,23.52,0,0,0-4.7-.4c-.8,0-1.7.1-2.7.2a23.47,23.47,0,0,0-2.4.4v32.5h-12V129.5a54.53,54.53,0,0,1,7.6-2.1,42.2,42.2,0,0,1,9.8-1,20.15,20.15,0,0,1,2.3.1l2.7.3a25.58,25.58,0,0,1,2.7.5,10.49,10.49,0,0,1,2.3.7Zm21-11.8a28.16,28.16,0,0,1,8.9,1.2,13.49,13.49,0,0,1,5.7,3.5,12.8,12.8,0,0,1,3,5.5,27.3,27.3,0,0,1,.9,7.2v25c-1.7.4-4.1.8-7.2,1.3a70.25,70.25,0,0,1-11.1.8,35.41,35.41,0,0,1-7.5-.7,16.88,16.88,0,0,1-5.8-2.4,10.29,10.29,0,0,1-3.7-4.3,14.51,14.51,0,0,1-1.3-6.5,12.24,12.24,0,0,1,1.5-6.3,11.23,11.23,0,0,1,4-4.1,17.81,17.81,0,0,1,5.7-2.2,29.89,29.89,0,0,1,6.7-.7c1.6,0,2.9.1,4.2.2a15.54,15.54,0,0,1,2.9.5v-1.1a6.41,6.41,0,0,0-1.9-4.9c-1.2-1.2-3.4-1.9-6.5-1.9a41.67,41.67,0,0,0-6.1.4,23.23,23.23,0,0,0-5.2,1.3l-1.5-9.7c.7-.2,1.6-.4,2.6-.7a34.3,34.3,0,0,1,3.4-.6c1.2-.2,2.5-.3,3.9-.5A22.71,22.71,0,0,1,444.8,126Zm.9,35.2c1.2,0,2.3,0,3.4-.1s1.9-.1,2.6-.2v-9.1c-.5-.1-1.2-.2-2.2-.3s-1.9-.2-2.7-.2c-1.1,0-2.2.1-3.2.2a6.63,6.63,0,0,0-2.6.8,5.35,5.35,0,0,0-1.8,1.5,4.5,4.5,0,0,0-.6,2.4c0,1.9.6,3.2,1.9,3.9A10.86,10.86,0,0,0,445.7,161.2Zm52-23.4a27.78,27.78,0,0,0-3.8-.8,23.52,23.52,0,0,0-4.7-.4c-.8,0-1.7.1-2.7.2a23.47,23.47,0,0,0-2.4.4v32.5h-12V129.5a54.53,54.53,0,0,1,7.6-2.1,42.2,42.2,0,0,1,9.8-1,20.15,20.15,0,0,1,2.3.1l2.7.3a25.58,25.58,0,0,1,2.7.5,10.49,10.49,0,0,1,2.3.7Z" style="fill:#323c50"/><path d="M133.3,106.4l1.6-.3c.4-2.4.9-4.8,1.4-7.2C135.3,101.4,134.2,103.9,133.3,106.4Z" style="fill:#5a9b00"/><path d="M149.8,75.8a120.93,120.93,0,0,0-8.5,24.8A121.4,121.4,0,0,1,251.9,29.1a111.22,111.22,0,0,1,11.6.6c2.6-.2,5.3-.3,7.9-.3a109.93,109.93,0,0,0-18-5.4h-1.5A126.08,126.08,0,0,0,149.8,75.8ZM321.5,44.9a116.64,116.64,0,0,0-18.3-6.4c2.6,1.9,5.1,3.9,7.5,5.9a121.57,121.57,0,0,1,58.6,75.8h1.5a25.79,25.79,0,0,1,3.9.4A126.71,126.71,0,0,0,321.5,44.9Zm53.6,133.7a132.46,132.46,0,0,1-13.4,23.1,121.52,121.52,0,0,1-109.8,69.9,115.78,115.78,0,0,1-20.5-1.8,119.67,119.67,0,0,0,29.4,6.6A126.53,126.53,0,0,0,375.1,178.6Zm-205.2,68a117.43,117.43,0,0,0,23.3,9.9,121.83,121.83,0,0,1-60.3-82.7,33.33,33.33,0,0,1-4,1c-.2,0-.4.1-.7.1l-.2.1h-.1A126.53,126.53,0,0,0,169.9,246.6Z" style="fill:#29b464"/><path d="M272.4,34.5a109.31,109.31,0,0,1,11.5.6c-4.1-2.1-8.2-4-12.5-5.7-2.7,0-5.3.1-7.9.3a126.84,126.84,0,0,0-108.3,78.8c.7-.2,1.3-.4,2.1-.6,1.4-.4,2.8-.6,4.2-.9A121.21,121.21,0,0,1,272.4,34.5ZM151.6,192.9a127,127,0,0,0,46.3,64.9q6.6,1.65,13.5,2.7a121.49,121.49,0,0,1-55-69.7,130.66,130.66,0,0,1-3.8-16.7,19.89,19.89,0,0,1-3.6-1.7c-.7-.4-1.3-.8-2-1.2.1.5.1.9.2,1.4A126.53,126.53,0,0,0,151.6,192.9Z" style="fill:#f96260"/><path d="M109.9,120.4a120.56,120.56,0,0,1,64.3-86.3A113,113,0,0,1,191.4,27a121.12,121.12,0,0,1,36.8-5.8,116.51,116.51,0,0,1,25.2,2.7,120.67,120.67,0,0,1,18,5.4A128.9,128.9,0,0,1,283.9,35a120.25,120.25,0,0,1,64,96.8,22.84,22.84,0,0,1,3-3.8l.3-.3a22.2,22.2,0,0,1,3.3-2.8,127.74,127.74,0,0,0-43.9-80.6c-2.4-2.1-4.9-4-7.5-5.9a115,115,0,0,0-11.9-7.7l-2.1-1.2A127.51,127.51,0,0,0,228,13.9c-4.6,0-9.1.3-13.6.7A127.09,127.09,0,0,0,102.1,121.7a26.12,26.12,0,0,1,6.3-1.3A7.5,7.5,0,0,0,109.9,120.4ZM228.2,269h.8a126.81,126.81,0,0,0,70.1-21.6,123.43,123.43,0,0,0,15.1-11.9,127.92,127.92,0,0,0,38.2-65.4,12.09,12.09,0,0,1-1.6-1.6c-.5-.6-1-1.2-1.6-1.9a29.59,29.59,0,0,1-2.6-4.2c-.1.1-.1.2-.2.3a120.66,120.66,0,0,1-57,82,126.68,126.68,0,0,1-16.5,8.2,119.56,119.56,0,0,1-44.8,8.7,116.57,116.57,0,0,1-16.8-1.2,100.79,100.79,0,0,1-13.5-2.7c-1.6-.4-3.1-.9-4.7-1.3a117.43,117.43,0,0,1-23.3-9.9A120.85,120.85,0,0,1,113,176.3a14.77,14.77,0,0,1-2.1-.1,35.08,35.08,0,0,1-5.8-1,128.11,128.11,0,0,0,95.5,90.7,131.76,131.76,0,0,0,14,2.3A124,124,0,0,0,228.2,269Z" style="fill:#0eb1eb"/><path d="M259.6,6A121.41,121.41,0,0,1,368.1,73.2a128.72,128.72,0,0,1,12.4,16.9C364.6,38.5,316.4.8,259.6.8a126,126,0,0,0-63.8,17.3,128.39,128.39,0,0,1,18.7-3.4A121.11,121.11,0,0,1,259.6,6ZM156.3,190.8a116.93,116.93,0,0,0,7.6,19.1,126.32,126.32,0,0,0,95.7,43.8A119,119,0,0,0,273,253a120.7,120.7,0,0,0,16.5-8.2,123.06,123.06,0,0,1-29.9,3.7A121.4,121.4,0,0,1,156.3,190.8Zm157.9,44.7a125.51,125.51,0,0,1-15.1,11.9,127,127,0,0,0,62.5-45.6A120.9,120.9,0,0,0,375,178.7c.4-.9.8-1.8,1.2-2.8a23.25,23.25,0,0,1-2.8.5,11.48,11.48,0,0,1-1.8.1h-1.3c-.1.2-.1.3-.2.5A121.69,121.69,0,0,1,314.2,235.5ZM147.1,172.6a12.2,12.2,0,0,0-.7-1.7,26.71,26.71,0,0,1-4.4-3.8l-.2-.2h0a30.93,30.93,0,0,1-4-5.5A127.08,127.08,0,0,0,151.5,193,157.64,157.64,0,0,1,147.1,172.6ZM375.7,92.2a123.92,123.92,0,0,1,5.1,30h.1a27,27,0,0,1,2.9,1.5c.8.5,1.5,1,2.3,1.5a118.22,118.22,0,0,0-1.1-14.7A131,131,0,0,0,375.7,92.2ZM174.2,34.1a126.64,126.64,0,0,0-37.8,64.8c-.5,2.4-1,4.8-1.4,7.2l5.4-.9c.3-1.6.6-3.1.9-4.7a119.08,119.08,0,0,1,8.5-24.8,122.27,122.27,0,0,1,41.6-48.8A138.32,138.32,0,0,0,174.2,34.1Z" style="fill:#f9c300"/><path d="M392.4,175.4h-.3A121.49,121.49,0,0,1,272.4,277a111.22,111.22,0,0,1-11.6-.6,119.67,119.67,0,0,1-29.4-6.6l-2.4-.9h-.8a119,119,0,0,1-13.4-.7,132.59,132.59,0,0,0,15.4,6.7,125.71,125.71,0,0,0,42.3,7.3c63,0,115.4-46.4,124.9-106.8ZM380.5,90.1a128.72,128.72,0,0,0-12.4-16.9,126.6,126.6,0,0,0-74-42c-.9-.2-1.8-.3-2.8-.5a134.35,134.35,0,0,1,11.9,7.7,127.82,127.82,0,0,1,18.3,6.4,122.17,122.17,0,0,1,54.2,47.3,124.21,124.21,0,0,1,9.2,18.2,135.44,135.44,0,0,1,5.1,15.6l4.9-1.7A125.39,125.39,0,0,0,380.5,90.1Z" style="fill:#f96260"/></svg>